<mxfile host="app.diagrams.net" modified="2022-01-13T13:02:00.421Z" agent="5.0 (Windows NT 10.0; WOW64) AppleWebKit/537.36 (KHTML, like Gecko) Chrome/95.0.4638.84 Safari/537.36" etag="--6h6qNhMR0QRLIiGzsf" version="16.2.4" type="github">
  <diagram id="kgpKYQtTHZ0yAKxKKP6v" name="Page-1">
    <mxGraphModel dx="1176" dy="692" grid="1" gridSize="10" guides="1" tooltips="1" connect="1" arrows="1" fold="1" page="1" pageScale="1" pageWidth="850" pageHeight="1100" math="0" shadow="0">
      <root>
        <mxCell id="0" />
        <mxCell id="1" parent="0" />
        <mxCell id="GfbCD9sPl2tcQUkUfjPo-22" value="" style="rounded=0;whiteSpace=wrap;html=1;fontSize=10;strokeWidth=1;dashed=1;dashPattern=1 1;" vertex="1" parent="1">
          <mxGeometry x="160" y="390" width="410" height="290" as="geometry" />
        </mxCell>
        <mxCell id="3nuBFxr9cyL0pnOWT2aG-1" value="User" style="shape=umlLifeline;perimeter=lifelinePerimeter;container=1;collapsible=0;recursiveResize=0;rounded=0;shadow=0;strokeWidth=1;" parent="1" vertex="1">
          <mxGeometry x="120" y="130" width="100" height="550" as="geometry" />
        </mxCell>
        <mxCell id="3nuBFxr9cyL0pnOWT2aG-5" value="Login Page" style="shape=umlLifeline;perimeter=lifelinePerimeter;container=1;collapsible=0;recursiveResize=0;rounded=0;shadow=0;strokeWidth=1;" parent="1" vertex="1">
          <mxGeometry x="310" y="130" width="100" height="550" as="geometry" />
        </mxCell>
        <mxCell id="3nuBFxr9cyL0pnOWT2aG-6" value="" style="points=[];perimeter=orthogonalPerimeter;rounded=0;shadow=0;strokeWidth=1;fillColor=#f5f5f5;fontColor=#333333;strokeColor=#666666;" parent="3nuBFxr9cyL0pnOWT2aG-5" vertex="1">
          <mxGeometry x="45" y="80" width="10" height="100" as="geometry" />
        </mxCell>
        <mxCell id="GfbCD9sPl2tcQUkUfjPo-28" value="" style="points=[];perimeter=orthogonalPerimeter;rounded=0;shadow=0;strokeWidth=1;fillColor=#f5f5f5;fontColor=#333333;strokeColor=#666666;" vertex="1" parent="3nuBFxr9cyL0pnOWT2aG-5">
          <mxGeometry x="45" y="320" width="10" height="70" as="geometry" />
        </mxCell>
        <mxCell id="GfbCD9sPl2tcQUkUfjPo-29" value="&lt;font style=&quot;font-size: 10px&quot;&gt;redirect&lt;/font&gt;" style="text;html=1;strokeColor=none;fillColor=none;align=center;verticalAlign=middle;whiteSpace=wrap;rounded=0;fontSize=13;" vertex="1" parent="3nuBFxr9cyL0pnOWT2aG-5">
          <mxGeometry x="20" y="320" width="60" height="30" as="geometry" />
        </mxCell>
        <mxCell id="GfbCD9sPl2tcQUkUfjPo-38" value="" style="points=[];perimeter=orthogonalPerimeter;rounded=0;shadow=0;strokeWidth=1;fillColor=#f5f5f5;fontColor=#333333;strokeColor=#666666;" vertex="1" parent="3nuBFxr9cyL0pnOWT2aG-5">
          <mxGeometry x="45" y="440" width="10" height="70" as="geometry" />
        </mxCell>
        <mxCell id="GfbCD9sPl2tcQUkUfjPo-41" value="" style="endArrow=classic;html=1;fontSize=10;edgeStyle=orthogonalEdgeStyle;curved=1;exitX=0.51;exitY=0.41;exitDx=0;exitDy=0;exitPerimeter=0;entryX=0.522;entryY=0.466;entryDx=0;entryDy=0;entryPerimeter=0;" edge="1" parent="3nuBFxr9cyL0pnOWT2aG-5">
          <mxGeometry width="50" height="50" relative="1" as="geometry">
            <mxPoint x="54.99999999999977" y="470" as="sourcePoint" />
            <mxPoint x="56.31999999999982" y="498.56000000000006" as="targetPoint" />
            <Array as="points">
              <mxPoint x="78.89999999999998" y="469.9" />
              <mxPoint x="78.89999999999998" y="498.9" />
              <mxPoint x="55.89999999999998" y="498.9" />
            </Array>
          </mxGeometry>
        </mxCell>
        <mxCell id="GfbCD9sPl2tcQUkUfjPo-7" value="visit" style="text;html=1;strokeColor=none;fillColor=none;align=center;verticalAlign=middle;whiteSpace=wrap;rounded=0;fontSize=10;" vertex="1" parent="1">
          <mxGeometry x="235" y="200" width="60" height="10" as="geometry" />
        </mxCell>
        <mxCell id="GfbCD9sPl2tcQUkUfjPo-8" value="Database" style="shape=umlLifeline;perimeter=lifelinePerimeter;container=1;collapsible=0;recursiveResize=0;rounded=0;shadow=0;strokeWidth=1;" vertex="1" parent="1">
          <mxGeometry x="510" y="130" width="110" height="550" as="geometry" />
        </mxCell>
        <mxCell id="GfbCD9sPl2tcQUkUfjPo-19" value="validate user login data" style="text;html=1;strokeColor=none;fillColor=none;align=center;verticalAlign=middle;whiteSpace=wrap;rounded=0;fontSize=10;" vertex="1" parent="GfbCD9sPl2tcQUkUfjPo-8">
          <mxGeometry y="180" width="110" height="30" as="geometry" />
        </mxCell>
        <mxCell id="GfbCD9sPl2tcQUkUfjPo-36" value="" style="endArrow=none;html=1;rounded=1;exitX=0.508;exitY=0.625;exitDx=0;exitDy=0;exitPerimeter=0;startArrow=classic;startFill=1;endFill=0;dashed=1;dashPattern=1 1;entryX=0.499;entryY=0.623;entryDx=0;entryDy=0;entryPerimeter=0;" edge="1" parent="GfbCD9sPl2tcQUkUfjPo-8">
          <mxGeometry width="50" height="50" relative="1" as="geometry">
            <mxPoint x="-147.03999999999996" y="441.02" as="sourcePoint" />
            <mxPoint x="57.049999999999955" y="440.0000000000001" as="targetPoint" />
          </mxGeometry>
        </mxCell>
        <mxCell id="GfbCD9sPl2tcQUkUfjPo-39" value="" style="endArrow=classic;html=1;fontSize=10;edgeStyle=orthogonalEdgeStyle;curved=1;exitX=0.5;exitY=1;exitDx=0;exitDy=0;entryX=0.487;entryY=0.432;entryDx=0;entryDy=0;entryPerimeter=0;" edge="1" parent="GfbCD9sPl2tcQUkUfjPo-8" source="GfbCD9sPl2tcQUkUfjPo-19" target="GfbCD9sPl2tcQUkUfjPo-8">
          <mxGeometry width="50" height="50" relative="1" as="geometry">
            <mxPoint x="59.99999999999977" y="210" as="sourcePoint" />
            <mxPoint x="61.31999999999982" y="238.56000000000006" as="targetPoint" />
            <Array as="points">
              <mxPoint x="84" y="210" />
              <mxPoint x="84" y="239" />
              <mxPoint x="61" y="239" />
              <mxPoint x="61" y="238" />
            </Array>
          </mxGeometry>
        </mxCell>
        <mxCell id="GfbCD9sPl2tcQUkUfjPo-9" value="" style="endArrow=classic;html=1;rounded=1;exitX=0.495;exitY=0.148;exitDx=0;exitDy=0;exitPerimeter=0;" edge="1" parent="1" source="3nuBFxr9cyL0pnOWT2aG-1" target="3nuBFxr9cyL0pnOWT2aG-6">
          <mxGeometry width="50" height="50" relative="1" as="geometry">
            <mxPoint x="170.00034482758605" y="180" as="sourcePoint" />
            <mxPoint x="340.19" y="180" as="targetPoint" />
            <Array as="points">
              <mxPoint x="330" y="210" />
            </Array>
          </mxGeometry>
        </mxCell>
        <mxCell id="GfbCD9sPl2tcQUkUfjPo-6" value="" style="endArrow=classic;html=1;rounded=1;entryX=0.035;entryY=0.298;entryDx=0;entryDy=0;exitX=0.508;exitY=0.2;exitDx=0;exitDy=0;exitPerimeter=0;entryPerimeter=0;" edge="1" parent="1" source="3nuBFxr9cyL0pnOWT2aG-1" target="3nuBFxr9cyL0pnOWT2aG-6">
          <mxGeometry width="50" height="50" relative="1" as="geometry">
            <mxPoint x="290" y="230" as="sourcePoint" />
            <mxPoint x="340" y="180" as="targetPoint" />
            <Array as="points">
              <mxPoint x="260" y="240" />
            </Array>
          </mxGeometry>
        </mxCell>
        <mxCell id="GfbCD9sPl2tcQUkUfjPo-13" value="Login" style="text;html=1;strokeColor=none;fillColor=none;align=center;verticalAlign=middle;whiteSpace=wrap;rounded=0;fontSize=10;" vertex="1" parent="1">
          <mxGeometry x="235" y="260" width="60" height="10" as="geometry" />
        </mxCell>
        <mxCell id="GfbCD9sPl2tcQUkUfjPo-15" value="" style="endArrow=classic;html=1;rounded=1;" edge="1" parent="1" target="GfbCD9sPl2tcQUkUfjPo-8">
          <mxGeometry width="50" height="50" relative="1" as="geometry">
            <mxPoint x="360.0003448275861" y="310" as="sourcePoint" />
            <mxPoint x="545" y="310" as="targetPoint" />
          </mxGeometry>
        </mxCell>
        <mxCell id="GfbCD9sPl2tcQUkUfjPo-16" value="send a user name/password hash" style="text;html=1;strokeColor=none;fillColor=none;align=center;verticalAlign=middle;whiteSpace=wrap;rounded=0;fontSize=10;" vertex="1" parent="1">
          <mxGeometry x="380" y="300" width="170" height="10" as="geometry" />
        </mxCell>
        <mxCell id="GfbCD9sPl2tcQUkUfjPo-23" value="&lt;b style=&quot;font-size: 12px;&quot;&gt;&lt;font style=&quot;font-size: 12px;&quot;&gt;[Login data is correct]&lt;/font&gt;&lt;/b&gt;" style="text;html=1;strokeColor=none;fillColor=none;align=center;verticalAlign=middle;whiteSpace=wrap;rounded=0;fontSize=12;" vertex="1" parent="1">
          <mxGeometry x="280" y="390" width="155" height="30" as="geometry" />
        </mxCell>
        <mxCell id="GfbCD9sPl2tcQUkUfjPo-25" value="user login accepted" style="text;html=1;strokeColor=none;fillColor=none;align=center;verticalAlign=middle;whiteSpace=wrap;rounded=0;fontSize=10;" vertex="1" parent="1">
          <mxGeometry x="380" y="430" width="170" height="10" as="geometry" />
        </mxCell>
        <mxCell id="GfbCD9sPl2tcQUkUfjPo-27" value="" style="endArrow=none;html=1;rounded=1;startArrow=classic;startFill=1;endFill=0;dashed=1;dashPattern=1 1;entryX=0.503;entryY=0.581;entryDx=0;entryDy=0;entryPerimeter=0;exitX=0.492;exitY=0.581;exitDx=0;exitDy=0;exitPerimeter=0;" edge="1" parent="1" source="3nuBFxr9cyL0pnOWT2aG-5" target="GfbCD9sPl2tcQUkUfjPo-8">
          <mxGeometry width="50" height="50" relative="1" as="geometry">
            <mxPoint x="380.000344827586" y="430" as="sourcePoint" />
            <mxPoint x="565" y="430" as="targetPoint" />
            <Array as="points" />
          </mxGeometry>
        </mxCell>
        <mxCell id="GfbCD9sPl2tcQUkUfjPo-10" value="enter a user name/password" style="text;html=1;strokeColor=none;fillColor=none;align=center;verticalAlign=middle;whiteSpace=wrap;rounded=0;fontSize=10;" vertex="1" parent="1">
          <mxGeometry x="180" y="230" width="170" height="10" as="geometry" />
        </mxCell>
        <mxCell id="GfbCD9sPl2tcQUkUfjPo-12" value="" style="endArrow=classic;html=1;rounded=1;" edge="1" parent="1">
          <mxGeometry width="50" height="50" relative="1" as="geometry">
            <mxPoint x="170.0003448275861" y="270" as="sourcePoint" />
            <mxPoint x="355" y="270" as="targetPoint" />
            <Array as="points">
              <mxPoint x="270" y="270" />
            </Array>
          </mxGeometry>
        </mxCell>
        <mxCell id="GfbCD9sPl2tcQUkUfjPo-30" value="" style="endArrow=classic;html=1;fontSize=10;edgeStyle=orthogonalEdgeStyle;curved=1;exitX=0.51;exitY=0.41;exitDx=0;exitDy=0;exitPerimeter=0;entryX=0.522;entryY=0.466;entryDx=0;entryDy=0;entryPerimeter=0;" edge="1" parent="1">
          <mxGeometry width="50" height="50" relative="1" as="geometry">
            <mxPoint x="363.5999999999999" y="470" as="sourcePoint" />
            <mxPoint x="364.91999999999985" y="498.55999999999995" as="targetPoint" />
            <Array as="points">
              <mxPoint x="387.5" y="469.9" />
              <mxPoint x="387.5" y="498.9" />
              <mxPoint x="364.5" y="498.9" />
            </Array>
          </mxGeometry>
        </mxCell>
        <mxCell id="GfbCD9sPl2tcQUkUfjPo-31" value="" style="endArrow=none;html=1;rounded=1;exitX=0.516;exitY=0.711;exitDx=0;exitDy=0;exitPerimeter=0;startArrow=classic;startFill=1;endFill=0;dashed=1;dashPattern=1 1;" edge="1" parent="1" source="3nuBFxr9cyL0pnOWT2aG-1">
          <mxGeometry width="50" height="50" relative="1" as="geometry">
            <mxPoint x="170.00000000000006" y="522.55" as="sourcePoint" />
            <mxPoint x="360" y="520" as="targetPoint" />
          </mxGeometry>
        </mxCell>
        <mxCell id="GfbCD9sPl2tcQUkUfjPo-32" value="successfull login message" style="text;html=1;strokeColor=none;fillColor=none;align=center;verticalAlign=middle;whiteSpace=wrap;rounded=0;fontSize=10;" vertex="1" parent="1">
          <mxGeometry x="180" y="510" width="170" height="10" as="geometry" />
        </mxCell>
        <mxCell id="GfbCD9sPl2tcQUkUfjPo-34" value="" style="endArrow=none;dashed=1;html=1;dashPattern=1 1;fontSize=10;curved=1;entryX=0;entryY=0.5;entryDx=0;entryDy=0;" edge="1" parent="1" source="GfbCD9sPl2tcQUkUfjPo-8" target="GfbCD9sPl2tcQUkUfjPo-22">
          <mxGeometry width="50" height="50" relative="1" as="geometry">
            <mxPoint x="320" y="560" as="sourcePoint" />
            <mxPoint x="370" y="510" as="targetPoint" />
          </mxGeometry>
        </mxCell>
        <mxCell id="GfbCD9sPl2tcQUkUfjPo-35" value="&lt;b style=&quot;font-size: 12px;&quot;&gt;&lt;font style=&quot;font-size: 12px;&quot;&gt;[Login data is incorrect]&lt;/font&gt;&lt;/b&gt;" style="text;html=1;strokeColor=none;fillColor=none;align=center;verticalAlign=middle;whiteSpace=wrap;rounded=0;fontSize=12;" vertex="1" parent="1">
          <mxGeometry x="280" y="530" width="155" height="30" as="geometry" />
        </mxCell>
        <mxCell id="GfbCD9sPl2tcQUkUfjPo-37" value="user login rẹjected" style="text;html=1;strokeColor=none;fillColor=none;align=center;verticalAlign=middle;whiteSpace=wrap;rounded=0;fontSize=10;" vertex="1" parent="1">
          <mxGeometry x="370" y="560" width="170" height="10" as="geometry" />
        </mxCell>
        <mxCell id="GfbCD9sPl2tcQUkUfjPo-40" value="&lt;font style=&quot;font-size: 10px&quot;&gt;redirect&lt;/font&gt;" style="text;html=1;strokeColor=none;fillColor=none;align=center;verticalAlign=middle;whiteSpace=wrap;rounded=0;fontSize=13;" vertex="1" parent="1">
          <mxGeometry x="330" y="570" width="60" height="30" as="geometry" />
        </mxCell>
        <mxCell id="GfbCD9sPl2tcQUkUfjPo-43" value="" style="endArrow=none;html=1;rounded=1;startArrow=classic;startFill=1;endFill=0;dashed=1;dashPattern=1 1;" edge="1" parent="1">
          <mxGeometry width="50" height="50" relative="1" as="geometry">
            <mxPoint x="170" y="640" as="sourcePoint" />
            <mxPoint x="360" y="640" as="targetPoint" />
          </mxGeometry>
        </mxCell>
        <mxCell id="GfbCD9sPl2tcQUkUfjPo-44" value="&lt;font style=&quot;font-size: 9px&quot;&gt;clear the password field for the new entry&lt;/font&gt;" style="text;html=1;strokeColor=none;fillColor=none;align=center;verticalAlign=middle;whiteSpace=wrap;rounded=0;fontSize=10;" vertex="1" parent="1">
          <mxGeometry x="180" y="630" width="170" height="10" as="geometry" />
        </mxCell>
      </root>
    </mxGraphModel>
  </diagram>
</mxfile>
